<?xml version="1.0" standalone="no"?>
<!DOCTYPE svg PUBLIC "-//W3C//DTD SVG 20010904//EN"
 "http://www.w3.org/TR/2001/REC-SVG-20010904/DTD/svg10.dtd">
<svg version="1.0" xmlns="http://www.w3.org/2000/svg"
 width="512.000000pt" height="512.000000pt" viewBox="0 0 512.000000 512.000000"
 preserveAspectRatio="xMidYMid meet">
<metadata>
Created by potrace 1.11, written by Peter Selinger 2001-2013
</metadata>
<g transform="translate(0.000000,512.000000) scale(0.100000,-0.100000)"
fill="#000000" stroke="none">
<path d="M0 2560 l0 -2560 2560 0 2560 0 0 2560 0 2560 -2560 0 -2560 0 0
-2560z m2310 2466 c0 -3 213 -695 244 -794 6 -18 -1 -19 -96 -26 -376 -24
-713 -179 -989 -455 -141 -141 -225 -259 -310 -433 l-52 -108 -523 0 c-288 0
-524 3 -523 8 1 11 2222 1810 2237 1811 6 1 12 -1 12 -3z m1638 -901 c611
-495 1111 -903 1111 -907 1 -5 -231 -8 -514 -8 l-515 0 -10 26 c-25 66 -107
216 -163 298 -80 119 -284 323 -402 403 -237 160 -506 253 -780 270 -90 5
-105 8 -100 22 44 139 245 793 245 797 0 3 4 4 8 2 5 -1 508 -408 1120 -903z
m-1174 -453 c102 -249 186 -455 186 -457 0 -3 -173 -5 -385 -5 -212 0 -385 2
-385 5 0 6 369 906 377 918 3 5 9 5 13 0 5 -4 92 -212 194 -461z m-634 -485
c0 -2 -148 -363 -328 -802 -208 -506 -334 -800 -342 -800 -8 0 -41 32 -73 70
-321 378 -439 880 -321 1366 13 54 30 115 38 134 l15 35 505 0 c279 0 506 -1
506 -3z m1878 -72 c52 -153 66 -255 66 -470 -1 -168 -4 -216 -22 -298 -59
-268 -174 -501 -344 -698 -33 -39 -64 -67 -68 -62 -6 6 -599 1442 -657 1591
-4 10 97 12 498 10 l504 -3 23 -70z m-103 -2245 c153 -371 280 -683 283 -692
4 -17 -78 -18 -1633 -18 -1555 0 -1637 1 -1633 18 3 9 126 310 273 667 147
358 271 660 276 673 9 23 10 22 76 -34 195 -165 425 -279 681 -337 84 -19 127
-22 322 -22 243 0 322 11 493 69 175 59 396 186 527 304 30 28 56 49 56 48 1
0 127 -305 279 -676z"/>
</g>
</svg>
